#!OML:ASF E:\Steps\Project 1\Capture day 1\Session 2\Subject.ASF
:FULLY-SPECIFIED
:DEGREES
331
root -0.933543 17.5734 18.7889 -163.554 -9.88495 182.845
lowerback -23.4573 -3.78321 -7.94375
upperback 1.42348 -3.0443 1.05687
thorax 15.4302 -2.133 4.66202
lowerneck 4.71419 -1.07103 -1.534
upperneck 10.906 -3.14091 7.8763
head 2.86905 -1.83406 2.80742
rclavicle -6.95746e-015 -1.82882e-014
rhumerus -42.5121 -17.7656 -73.6943
rradius 33.1617
rwrist -1.51143
rhand -8.90866 -54.6253
rfingers 7.12502
rthumb 17.0344 -83.8984
lclavicle -6.95746e-015 -1.82882e-014
lhumerus -34.1109 1.80124 75.4664
lradius 25.6069
lwrist -1.86812
lhand -22.3061 -12.4046
lfingers 7.12502
lthumb 4.11323 17.5354
rfemur -49.1209 -1.22358 7.08256
rtibia 25.0949
rfoot -11.9004 -12.8252
rtoes -15.7549
lfemur -13.8325 -17.0858 -17.5541
ltibia 24.45
lfoot -20.884 -5.27658
ltoes -2.33319
332
root -0.911086 17.5598 18.7216 -163.765 -10.0828 182.961
lowerback -23.4627 -3.79217 -8.01284
upperback 1.40631 -3.04172 1.08736
thorax 15.4186 -2.13893 4.73854
lowerneck 4.35978 -1.28678 -1.61024
upperneck 11.5316 -3.58516 8.19175
head 3.1869 -2.05615 2.92821
rclavicle 2.78299e-015 -7.95139e-016
rhumerus -42.937 -18.1101 -73.3904
rradius 33.0139
rwrist -1.15193
rhand -8.92717 -54.9368
rfingers 7.12502
rthumb 17.0165 -84.2115
lclavicle 2.78299e-015 -7.95139e-016
lhumerus -34.091 1.69871 75.361
lradius 25.547
lwrist -1.89357
lhand -22.4515 -12.5973
lfingers 7.12502
lthumb 3.97274 17.3454
rfemur -48.9008 -0.930475 6.26276
rtibia 23.7987
rfoot -11.1293 -13.2219
rtoes -15.6304
lfemur -13.4133 -17.1143 -17.3774
ltibia 24.5279
lfoot -20.992 -5.47896
ltoes -1.41188
333
root -0.88777 17.5474 18.6492 -164.032 -10.3769 182.969
lowerback -23.4543 -3.8874 -8.18099
upperback 1.45858 -3.11835 1.10257
thorax 15.5022 -2.19102 4.82327
lowerneck 5.25 -1.12859 -1.46774
upperneck 10.3102 -3.15453 7.99822
head 2.57324 -1.85005 2.83566
rclavicle -1.92821e-014 1.90833e-014
rhumerus -43.2263 -18.3256 -73.1868
rradius 32.7828
rwrist -0.827017
rhand -8.8673 -54.63
rfingers 7.12502
rthumb 17.0742 -83.8996
lclavicle -1.92821e-014 1.90833e-014
lhumerus -34.1401 1.46471 75.3175
lradius 25.7673
lwrist -1.49772
lhand -22.4648 -12.5516
lfingers 7.12502
lthumb 3.95994 17.3913
rfemur -48.5152 -0.859744 5.44514
rtibia 22.5746
rfoot -10.1193 -13.6663
rtoes -17.2831
lfemur -12.8762 -17.2838 -17.3387
ltibia 24.5976
lfoot -21.14 -5.40025
ltoes -2.83086
334
root -0.863162 17.5349 18.5786 -164.276 -10.7133 183.105
lowerback -23.4242 -3.9602 -8.15538
upperback 1.48411 -3.2223 1.10203
thorax 15.531 -2.23596 4.76888
lowerneck 4.32387 -1.50452 -1.69739
upperneck 11.3737 -3.88366 8.41747
head 3.16686 -2.20104 3.01707
rclavicle -6.16232e-015 -3.02153e-014
rhumerus -43.4565 -18.7062 -72.9652
rradius 32.3745
rwrist -0.498179
rhand -8.93499 -53.6207
rfingers 7.12502
rthumb 17.009 -82.896
lclavicle -6.16232e-015 -3.02153e-014
lhumerus -34.2669 1.02525 75.2374
lradius 26.1595
lwrist -0.899468
lhand -22.2879 -12.0484
lfingers 7.12502
lthumb 4.13073 17.8913
rfemur -48.1042 -0.483544 4.57153
rtibia 21.3409
rfoot -9.09319 -14.3253
rtoes -18.7761
lfemur -12.4543 -17.3471 -17.1073
ltibia 24.7262
lfoot -21.4117 -5.28469
ltoes -5.40548
335
root -0.838887 17.5221 18.5101 -164.518 -10.9671 183.341
lowerback -23.3735 -3.9441 -7.98271
upperback 1.44932 -3.25562 1.09343
thorax 15.4515 -2.23272 4.6493
lowerneck 4.77456 -1.29859 -1.42288
upperneck 11.2006 -3.55698 8.16909
head 2.9902 -2.04855 2.88568
rclavicle -2.97183e-014 -1.19271e-014
rhumerus -43.923 -19.2165 -72.6143
rradius 32.0888
rwrist -0.212033
rhand -9.06214 -52.78
rfingers 7.12502
rthumb 16.8866 -82.0658
lclavicle -2.97183e-014 -1.19271e-014
lhumerus -34.4235 0.749487 75.0568
lradius 26.4027
lwrist -0.789863
lhand -22.142 -11.9383
lfingers 7.12502
lthumb 4.27161 17.9986
rfemur -47.7933 -0.0965719 3.85554
rtibia 20.2057
rfoot -7.87074 -14.8223
rtoes -20.3376
lfemur -12.065 -17.3222 -16.7639
ltibia 24.8249
lfoot -21.6859 -5.32763
ltoes -6.57047
336
root -0.812294 17.5092 18.44 -164.741 -11.1791 183.619
lowerback -23.4184 -3.97775 -7.85887
upperback 1.46198 -3.34024 1.16451
thorax 15.5028 -2.26569 4.62809
lowerneck 5.32092 -1.12724 -1.38157
upperneck 10.7042 -3.24091 8.06567
head 2.6994 -1.90416 2.84533
rclavicle 1.20265e-014 4.29375e-014
rhumerus -44.1996 -19.3995 -72.4061
rradius 31.9059
rwrist -0.120759
rhand -9.14326 -52.5787
rfingers 7.12502
rthumb 16.8085 -81.8712
lclavicle 1.20265e-014 4.29375e-014
lhumerus -34.5285 0.646706 74.9462
lradius 26.6241
lwrist -0.685145
lhand -22.2512 -12.0768
lfingers 7.12502
lthumb 4.16617 17.8622
rfemur -47.5315 0.160338 3.33151
rtibia 19.097
rfoot -6.79885 -15.3404
rtoes -20.8514
lfemur -11.6835 -17.3438 -16.3674
ltibia 24.8941
lfoot -21.8351 -5.43814
ltoes -6.64051
